<svg xmlns="http://www.w3.org/2000/svg" viewBox="0 0 480 160" width="480" height="160" role="img" aria-label="Costimo"><title>Costimo — Project Cost Platform</title><rect x="47.45454545454545" y="30" width="22" height="22" rx="3" ry="3" fill="#FFFFFF"></rect><rect x="73.45454545454545" y="30" width="22" height="22" rx="3" ry="3" fill="#FFFFFF"></rect><rect x="99.45454545454545" y="30" width="22" height="22" rx="3" ry="3" fill="#C6A75E"></rect><rect x="47.45454545454545" y="56" width="22" height="22" rx="3" ry="3" fill="#FFFFFF"></rect><rect x="47.45454545454545" y="82" width="22" height="22" rx="3" ry="3" fill="#FFFFFF"></rect><rect x="47.45454545454545" y="108" width="22" height="22" rx="3" ry="3" fill="#FFFFFF"></rect><rect x="73.45454545454545" y="108" width="22" height="22" rx="3" ry="3" fill="#FFFFFF"></rect><rect x="99.45454545454545" y="108" width="22" height="22" rx="3" ry="3" fill="#C6A75E"></rect><line x1="47.45454545454545" y1="21" x2="121.45454545454545" y2="21" stroke="#FFFFFF" stroke-width="1" stroke-linecap="round"></line><circle cx="47.45454545454545" cy="21" r="2" fill="#FFFFFF"></circle><circle cx="121.45454545454545" cy="21" r="2" fill="#FFFFFF"></circle><line x1="47.45454545454545" y1="139" x2="121.45454545454545" y2="139" stroke="#FFFFFF" stroke-width="1" stroke-linecap="round"></line><circle cx="47.45454545454545" cy="139" r="2" fill="#FFFFFF"></circle><circle cx="121.45454545454545" cy="139" r="2" fill="#FFFFFF"></circle><line x1="38.45454545454545" y1="41" x2="38.45454545454545" y2="119" stroke="#FFFFFF" stroke-width="1" stroke-linecap="round"></line><circle cx="38.45454545454545" cy="41" r="2" fill="#FFFFFF"></circle><circle cx="38.45454545454545" cy="119" r="2" fill="#FFFFFF"></circle><g transform="translate(46.60072336118479,14) scale(0.915599,1)" fill="#FFFFFF"><path d="M0.933 0L7.119 0L7.119-1.436L2.645-1.436L2.645-4.016L6.763-4.016L6.763-5.452L2.645-5.452L2.645-8.019L7.082-8.019L7.082-9.455L0.933-9.455ZM16.309-6.855L17.958-6.855C17.925-8.453 16.563-9.584 14.551-9.584C12.565-9.584 11.074-8.467 11.079-6.795C11.079-5.438 12.044-4.658 13.600-4.256L14.675-3.979C15.695-3.721 16.369-3.402 16.374-2.668C16.369-1.860 15.603-1.320 14.486-1.320C13.415-1.320 12.584-1.800 12.515-2.793L10.830-2.793C10.899-0.914 12.298 0.143 14.500 0.143C16.766 0.143 18.082-0.988 18.087-2.654C18.082-4.293 16.730-5.041 15.308-5.378L14.421-5.600C13.646-5.784 12.806-6.112 12.815-6.902C12.819-7.613 13.456-8.134 14.527-8.134C15.548-8.134 16.222-7.659 16.309-6.855ZM21.535-8.019L24.457-8.019L24.457 0L26.156 0L26.156-8.019L29.078-8.019L29.078-9.455L21.535-9.455ZM34.580-9.455L32.868-9.455L32.868 0L34.580 0ZM38.781-9.455L38.781 0L40.424 0L40.424-6.509L40.512-6.509L43.125-0.028L44.353-0.028L46.966-6.495L47.054-6.495L47.054 0L48.697 0L48.697-9.455L46.601-9.455L43.794-2.604L43.684-2.604L40.877-9.455ZM54.116 0L54.896-2.331L58.451-2.331L59.236 0L61.064 0L57.731-9.455L55.617-9.455L52.288 0ZM55.358-3.707L56.637-7.516L56.711-7.516L57.989-3.707ZM64.235-8.019L67.157-8.019L67.157 0L68.856 0L68.856-8.019L71.778-8.019L71.778-9.455L64.235-9.455ZM75.568 0L81.754 0L81.754-1.436L77.281-1.436L77.281-4.016L81.398-4.016L81.398-5.452L77.281-5.452L77.281-8.019L81.717-8.019L81.717-9.455L75.568-9.455Z"></path></g><g transform="translate(46.78588203441037,155.45454545454547) scale(0.965619,1)" fill="#FFFFFF"><path d="M9.025-6.265C8.734-8.365 7.119-9.584 5.023-9.584C2.553-9.584 0.692-7.783 0.692-4.727C0.692-1.676 2.530 0.129 5.023 0.129C7.271 0.129 8.762-1.325 9.025-3.130L7.299-3.139C7.082-2.031 6.177-1.408 5.046-1.408C3.513-1.408 2.414-2.558 2.414-4.727C2.414-6.860 3.504-8.047 5.050-8.047C6.200-8.047 7.100-7.396 7.299-6.265ZM21.388-4.727C21.388-7.783 19.523-9.584 17.043-9.584C14.560-9.584 12.699-7.783 12.699-4.727C12.699-1.676 14.560 0.129 17.043 0.129C19.523 0.129 21.388-1.671 21.388-4.727ZM19.666-4.727C19.666-2.576 18.585-1.408 17.043-1.408C15.506-1.408 14.421-2.576 14.421-4.727C14.421-6.879 15.506-8.047 17.043-8.047C18.585-8.047 19.666-6.879 19.666-4.727ZM33.122-9.455L31.419-9.455L31.419-3.010L31.336-3.010L26.885-9.455L25.353-9.455L25.353 0L27.065 0L27.065-6.440L27.144-6.440L31.599 0L33.122 0ZM36.907-8.019L39.829-8.019L39.829 0L41.528 0L41.528-8.019L44.450-8.019L44.450-9.455L36.907-9.455ZM48.240 0L49.953 0L49.953-3.462L51.698-3.462L53.554 0L55.465 0L53.420-3.749C54.532-4.196 55.119-5.147 55.119-6.431C55.119-8.236 53.955-9.455 51.785-9.455L48.240-9.455ZM49.953-4.884L49.953-8.023L51.522-8.023C52.801-8.023 53.373-7.437 53.373-6.431C53.373-5.424 52.801-4.884 51.532-4.884ZM67.486-4.727C67.486-7.783 65.620-9.584 63.141-9.584C60.658-9.584 58.797-7.783 58.797-4.727C58.797-1.676 60.658 0.129 63.141 0.129C65.620 0.129 67.486-1.671 67.486-4.727ZM65.764-4.727C65.764-2.576 64.683-1.408 63.141-1.408C61.604-1.408 60.519-2.576 60.519-4.727C60.519-6.879 61.604-8.047 63.141-8.047C64.683-8.047 65.764-6.879 65.764-4.727ZM71.451 0L77.327 0L77.327-1.436L73.163-1.436L73.163-9.455L71.451-9.455Z"></path></g><g transform="translate(31.454545454545453,112.0208096590909) rotate(-90) scale(1.000000,1)" fill="#FFFFFF"><path d="M0.933 0L4.760 0C6.925 0 7.987-1.103 7.987-2.576C7.987-4.007 6.971-4.847 5.964-4.898L5.964-4.990C6.888-5.207 7.617-5.854 7.617-7.003C7.617-8.411 6.602-9.455 4.552-9.455L0.933-9.455ZM2.645-1.431L2.645-4.201L4.533-4.201C5.591-4.201 6.246-3.555 6.246-2.710C6.246-1.957 5.729-1.431 4.487-1.431ZM2.645-5.434L2.645-8.042L4.376-8.042C5.383-8.042 5.904-7.511 5.904-6.782C5.904-5.951 5.230-5.434 4.339-5.434ZM17.777-9.455L17.777-3.421C17.777-2.234 16.951-1.385 15.654-1.385C14.352-1.385 13.530-2.234 13.530-3.421L13.530-9.455L11.818-9.455L11.818-3.278C11.818-1.246 13.341 0.143 15.654 0.143C17.958 0.143 19.490-1.246 19.490-3.278L19.490-9.455ZM26.899 0C29.780 0 31.488-1.782 31.488-4.737C31.488-7.682 29.780-9.455 26.964-9.455L23.695-9.455L23.695 0ZM25.408-1.482L25.408-7.973L26.867-7.973C28.787-7.973 29.789-6.902 29.789-4.737C29.789-2.562 28.787-1.482 26.816-1.482ZM41.787-6.435L43.532-6.435C43.241-8.291 41.634-9.584 39.543-9.584C37.069-9.584 35.213-7.765 35.213-4.718C35.213-1.727 36.986 0.129 39.594 0.129C41.934 0.129 43.610-1.376 43.610-3.813L43.610-4.949L39.774-4.949L39.774-3.610L41.953-3.610C41.925-2.262 41.025-1.408 39.603-1.408C38.020-1.408 36.935-2.594 36.935-4.737C36.935-6.865 38.038-8.047 39.566-8.047C40.706-8.047 41.482-7.437 41.787-6.435ZM47.608 0L53.794 0L53.794-1.436L49.320-1.436L49.320-4.016L53.438-4.016L53.438-5.452L49.320-5.452L49.320-8.019L53.757-8.019L53.757-9.455L47.608-9.455ZM57.431-8.019L60.353-8.019L60.353 0L62.052 0L62.052-8.019L64.974-8.019L64.974-9.455L57.431-9.455Z"></path></g><g transform="translate(147.45454545454544,88.00590909090909) scale(0.48)"><g transform="translate(-5.042613636363637,0)"><g fill="#FFFFFF"><path d="M70.490-47.266C68.466-64.063 55.753-73.722 38.920-73.722C19.709-73.722 5.043-60.156 5.043-36.364C5.043-12.642 19.460 0.994 38.920 0.994C57.564 0.994 68.821-11.399 70.490-24.787L54.936-24.858C53.480-17.081 47.372-12.607 39.169-12.607C28.125-12.607 20.632-20.810 20.632-36.364C20.632-51.491 28.018-60.121 39.276-60.121C47.692-60.121 53.764-55.256 54.936-47.266ZM148.366-36.364C148.366-60.156 133.594-73.722 114.311-73.722C94.922-73.722 80.256-60.156 80.256-36.364C80.256-12.678 94.922 0.994 114.311 0.994C133.594 0.994 148.366-12.571 148.366-36.364ZM132.777-36.364C132.777-20.952 125.462-12.607 114.311-12.607C103.125-12.607 95.845-20.952 95.845-36.364C95.845-51.776 103.125-60.121 114.311-60.121C125.462-60.121 132.777-51.776 132.777-36.364ZM199.183-51.811L213.920-51.811C213.707-64.773 203.054-73.722 186.861-73.722C170.916-73.722 159.233-64.915 159.304-51.705C159.268-40.980 166.832-34.837 179.119-31.889L187.038-29.901C194.957-27.983 199.361-25.710 199.396-20.810C199.361-15.483 194.318-11.861 186.506-11.861C178.516-11.861 172.763-15.554 172.266-22.834L157.386-22.834C157.777-7.102 169.034 1.030 186.683 1.030C204.439 1.030 214.879-7.457 214.915-20.774C214.879-32.884 205.753-39.311 193.111-42.152L186.577-43.714C180.256-45.170 174.964-47.514 175.071-52.734C175.071-57.422 179.226-60.866 186.754-60.866C194.105-60.866 198.615-57.528 199.183-51.811ZM222.443-60.050L244.709-60.050L244.709 0L259.908 0L259.908-60.050L282.173-60.050L282.173-72.727L222.443-72.727Z"></path></g><rect x="291.1399147727273" y="-54.54545454545455" width="16.370738636363626" height="54.54545454545455" fill="#FFFFFF"></rect><rect x="290.1399147727273" y="-78.91619318181817" width="18.370738636363626" height="18.370738636363626" rx="2" ry="2" fill="#C6A75E"></rect><g transform="translate(312.92613636363643,0)" fill="#FFFFFF"><path d="M6.321-72.727L6.321 0L21.236 0L21.236-47.514L21.839-47.514L40.661-0.355L50.817-0.355L69.638-47.337L70.241-47.337L70.241 0L85.156 0L85.156-72.727L66.193-72.727L46.165-23.864L45.313-23.864L25.284-72.727ZM164.631-36.364C164.631-60.156 149.858-73.722 130.575-73.722C111.186-73.722 96.520-60.156 96.520-36.364C96.520-12.678 111.186 0.994 130.575 0.994C149.858 0.994 164.631-12.571 164.631-36.364ZM149.041-36.364C149.041-20.952 141.726-12.607 130.575-12.607C119.389-12.607 112.109-20.952 112.109-36.364C112.109-51.776 119.389-60.121 130.575-60.121C141.726-60.121 149.041-51.776 149.041-36.364Z"></path></g><g transform="translate(13.374289772789645,40.36363636363636)" fill="#A8B3C2"><path d="M2.237 0L5.310 0L5.310-7.159L9.486-7.159C14.209-7.159 16.545-10.013 16.545-13.771C16.545-17.520 14.229-20.364 9.496-20.364L2.237-20.364ZM5.310-9.764L5.310-17.729L9.168-17.729C12.210-17.729 13.453-16.078 13.453-13.771C13.453-11.464 12.210-9.764 9.207-9.764ZM28.333 0L31.306 0L31.306-9.327C31.306-11.325 32.847-12.767 34.955-12.767C35.572-12.767 36.268-12.658 36.506-12.588L36.506-15.432C36.208-15.472 35.621-15.501 35.243-15.501C33.454-15.501 31.922-14.487 31.366-12.847L31.206-12.847L31.206-15.273L28.333-15.273ZM53.961 0.308C58.267 0.308 61.081-2.844 61.081-7.567C61.081-12.320 58.267-15.472 53.961-15.472C49.656-15.472 46.842-12.320 46.842-7.567C46.842-2.844 49.656 0.308 53.961 0.308ZM53.971-2.188C51.157-2.188 49.845-4.643 49.845-7.577C49.845-10.500 51.157-12.986 53.971-12.986C56.765-12.986 58.078-10.500 58.078-7.577C58.078-4.643 56.765-2.188 53.971-2.188ZM72.828-15.273L72.828 0.974C72.828 2.386 72.242 3.162 70.830 3.162L70.352 3.162L70.352 5.717C70.561 5.727 70.750 5.727 70.959 5.727C74.121 5.727 75.801 4.057 75.801 0.994L75.801-15.273ZM74.300-17.629C75.324-17.629 76.179-18.425 76.179-19.399C76.179-20.374 75.324-21.179 74.300-21.179C73.266-21.179 72.421-20.374 72.421-19.399C72.421-18.425 73.266-17.629 74.300-17.629ZM94.817 0.308C98.148 0.308 100.505-1.332 101.181-3.818L98.367-4.325C97.830-2.884 96.537-2.148 94.847-2.148C92.302-2.148 90.591-3.798 90.512-6.741L101.370-6.741L101.370-7.795C101.370-13.314 98.069-15.472 94.609-15.472C90.353-15.472 87.549-12.230 87.549-7.537C87.549-2.794 90.313 0.308 94.817 0.308ZM90.522-8.969C90.641-11.136 92.212-13.016 94.628-13.016C96.935-13.016 98.447-11.305 98.457-8.969ZM119.551 0.308C123.160 0.308 125.497-1.859 125.825-4.832L122.931-4.832C122.554-3.182 121.271-2.207 119.571-2.207C117.055-2.207 115.434-4.305 115.434-7.636C115.434-10.908 117.085-12.966 119.571-12.966C121.460-12.966 122.613-11.773 122.931-10.341L125.825-10.341C125.507-13.423 122.991-15.472 119.521-15.472C115.216-15.472 112.431-12.230 112.431-7.567C112.431-2.963 115.116 0.308 119.551 0.308ZM144.583-15.273L141.450-15.273L141.450-18.932L138.477-18.932L138.477-15.273L136.240-15.273L136.240-12.886L138.477-12.886L138.477-3.868C138.467-1.094 140.585 0.249 142.932 0.199C143.877 0.189 144.513 0.010 144.861-0.119L144.324-2.575C144.125-2.536 143.757-2.446 143.280-2.446C142.315-2.446 141.450-2.764 141.450-4.484L141.450-12.886L144.583-12.886ZM189.307-13.741C188.611-18.097 185.200-20.642 180.895-20.642C175.625-20.642 171.737-16.695 171.737-10.182C171.737-3.669 175.605 0.278 180.895 0.278C185.369 0.278 188.640-2.526 189.307-6.553L186.204-6.563C185.677-3.957 183.490-2.526 180.914-2.526C177.424-2.526 174.789-5.200 174.789-10.182C174.789-15.124 177.414-17.838 180.924-17.838C183.520-17.838 185.697-16.376 186.204-13.741ZM207.617 0.308C211.922 0.308 214.736-2.844 214.736-7.567C214.736-12.320 211.922-15.472 207.617-15.472C203.311-15.472 200.497-12.320 200.497-7.567C200.497-2.844 203.311 0.308 207.617 0.308ZM207.627-2.188C204.813-2.188 203.500-4.643 203.500-7.577C203.500-10.500 204.813-12.986 207.627-12.986C210.421-12.986 211.733-10.500 211.733-7.577C211.733-4.643 210.421-2.188 207.627-2.188ZM237.928-11.544C237.312-13.920 235.452-15.472 232.151-15.472C228.701-15.472 226.255-13.652 226.255-10.947C226.255-8.780 227.567-7.338 230.431-6.702L233.016-6.135C234.488-5.807 235.174-5.151 235.174-4.196C235.174-3.013 233.911-2.088 231.962-2.088C230.183-2.088 229.039-2.854 228.681-4.355L225.808-3.918C226.305-1.213 228.552 0.308 231.982 0.308C235.671 0.308 238.227-1.651 238.227-4.415C238.227-6.572 236.854-7.905 234.050-8.551L231.624-9.108C229.944-9.506 229.218-10.072 229.228-11.107C229.218-12.280 230.491-13.115 232.181-13.115C234.031-13.115 234.886-12.091 235.234-11.067ZM257.054-15.273L253.922-15.273L253.922-18.932L250.949-18.932L250.949-15.273L248.711-15.273L248.711-12.886L250.949-12.886L250.949-3.868C250.939-1.094 253.057 0.249 255.403 0.199C256.348 0.189 256.984 0.010 257.332-0.119L256.795-2.575C256.596-2.536 256.228-2.446 255.751-2.446C254.787-2.446 253.922-2.764 253.922-4.484L253.922-12.886L257.054-12.886ZM284.864 0L287.937 0L287.937-7.159L292.113-7.159C296.836-7.159 299.173-10.013 299.173-13.771C299.173-17.520 296.856-20.364 292.123-20.364L284.864-20.364ZM287.937-9.764L287.937-17.729L291.795-17.729C294.837-17.729 296.080-16.078 296.080-13.771C296.080-11.464 294.837-9.764 291.835-9.764ZM313.933-20.364L310.960-20.364L310.960 0L313.933 0ZM330.811 0.338C333.337 0.338 334.759-0.945 335.326-2.088L335.445-2.088L335.445 0L338.348 0L338.348-10.142C338.348-14.587 334.848-15.472 332.422-15.472C329.658-15.472 327.113-14.358 326.118-11.574L328.912-10.938C329.350-12.021 330.463-13.065 332.462-13.065C334.381-13.065 335.365-12.061 335.365-10.331L335.365-10.261C335.365-9.178 334.252-9.197 331.507-8.879C328.614-8.541 325.651-7.786 325.651-4.315C325.651-1.313 327.908 0.338 330.811 0.338ZM331.458-2.048C329.777-2.048 328.564-2.804 328.564-4.276C328.564-5.866 329.976-6.433 331.696-6.662C332.661-6.791 334.948-7.050 335.375-7.477L335.375-5.509C335.375-3.699 333.934-2.048 331.458-2.048ZM357.872-15.273L354.739-15.273L354.739-18.932L351.766-18.932L351.766-15.273L349.529-15.273L349.529-12.886L351.766-12.886L351.766-3.868C351.757-1.094 353.874 0.249 356.221 0.199C357.166 0.189 357.802 0.010 358.150-0.119L357.613-2.575C357.414-2.536 357.046-2.446 356.569-2.446C355.605-2.446 354.739-2.764 354.739-4.484L354.739-12.886L357.872-12.886ZM376.858-15.273L373.567-15.273L373.567-16.645C373.567-17.997 374.124-18.733 375.575-18.733C376.192-18.733 376.629-18.594 376.908-18.504L377.604-20.911C377.186-21.070 376.321-21.318 375.118-21.318C372.702-21.318 370.584-19.906 370.584-17.043L370.584-15.273L368.227-15.273L368.227-12.886L370.584-12.886L370.584 0L373.567 0L373.567-12.886L376.858-12.886ZM394.790 0.308C399.096 0.308 401.910-2.844 401.910-7.567C401.910-12.320 399.096-15.472 394.790-15.472C390.485-15.472 387.671-12.320 387.671-7.567C387.671-2.844 390.485 0.308 394.790 0.308ZM394.800-2.188C391.986-2.188 390.674-4.643 390.674-7.577C390.674-10.500 391.986-12.986 394.800-12.986C397.594-12.986 398.907-10.500 398.907-7.577C398.907-4.643 397.594-2.188 394.800-2.188ZM413.657 0L416.630 0L416.630-9.327C416.630-11.325 418.171-12.767 420.279-12.767C420.896-12.767 421.592-12.658 421.830-12.588L421.830-15.432C421.532-15.472 420.946-15.501 420.568-15.501C418.778-15.501 417.247-14.487 416.690-12.847L416.531-12.847L416.531-15.273L413.657-15.273ZM432.852 0L435.825 0L435.825-9.416C435.825-11.474 437.267-12.906 438.957-12.906C440.608-12.906 441.751-11.813 441.751-10.152L441.751 0L444.714 0L444.714-9.734C444.714-11.574 445.838-12.906 447.777-12.906C449.348-12.906 450.641-12.031 450.641-9.963L450.641 0L453.614 0L453.614-10.241C453.614-13.732 451.665-15.472 448.901-15.472C446.703-15.472 445.053-14.418 444.317-12.787L444.158-12.787C443.491-14.457 442.089-15.472 440.051-15.472C438.033-15.472 436.531-14.467 435.895-12.787L435.706-12.787L435.706-15.273L432.852-15.273Z"></path></g></g></g></svg>