<svg xmlns="http://www.w3.org/2000/svg" viewBox="0 0 360 80" width="360" height="80" role="img" aria-label="Costimo"><g transform="translate(30.896458987001324,50.5262214253698) scale(0.6311071268489467)"><g transform="translate(-5.042613636363637,0)"><g fill="#0B1F3B"><path d="M70.490-47.266C68.466-64.063 55.753-73.722 38.920-73.722C19.709-73.722 5.043-60.156 5.043-36.364C5.043-12.642 19.460 0.994 38.920 0.994C57.564 0.994 68.821-11.399 70.490-24.787L54.936-24.858C53.480-17.081 47.372-12.607 39.169-12.607C28.125-12.607 20.632-20.810 20.632-36.364C20.632-51.491 28.018-60.121 39.276-60.121C47.692-60.121 53.764-55.256 54.936-47.266ZM148.366-36.364C148.366-60.156 133.594-73.722 114.311-73.722C94.922-73.722 80.256-60.156 80.256-36.364C80.256-12.678 94.922 0.994 114.311 0.994C133.594 0.994 148.366-12.571 148.366-36.364ZM132.777-36.364C132.777-20.952 125.462-12.607 114.311-12.607C103.125-12.607 95.845-20.952 95.845-36.364C95.845-51.776 103.125-60.121 114.311-60.121C125.462-60.121 132.777-51.776 132.777-36.364ZM199.183-51.811L213.920-51.811C213.707-64.773 203.054-73.722 186.861-73.722C170.916-73.722 159.233-64.915 159.304-51.705C159.268-40.980 166.832-34.837 179.119-31.889L187.038-29.901C194.957-27.983 199.361-25.710 199.396-20.810C199.361-15.483 194.318-11.861 186.506-11.861C178.516-11.861 172.763-15.554 172.266-22.834L157.386-22.834C157.777-7.102 169.034 1.030 186.683 1.030C204.439 1.030 214.879-7.457 214.915-20.774C214.879-32.884 205.753-39.311 193.111-42.152L186.577-43.714C180.256-45.170 174.964-47.514 175.071-52.734C175.071-57.422 179.226-60.866 186.754-60.866C194.105-60.866 198.615-57.528 199.183-51.811ZM222.443-60.050L244.709-60.050L244.709 0L259.908 0L259.908-60.050L282.173-60.050L282.173-72.727L222.443-72.727Z"></path></g><rect x="291.1399147727273" y="-54.54545454545455" width="16.370738636363626" height="54.54545454545455" fill="#0B1F3B"></rect><rect x="290.1399147727273" y="-78.91619318181817" width="18.370738636363626" height="18.370738636363626" rx="2" ry="2" fill="#C6A75E"></rect><g transform="translate(312.92613636363643,0)" fill="#0B1F3B"><path d="M6.321-72.727L6.321 0L21.236 0L21.236-47.514L21.839-47.514L40.661-0.355L50.817-0.355L69.638-47.337L70.241-47.337L70.241 0L85.156 0L85.156-72.727L66.193-72.727L46.165-23.864L45.313-23.864L25.284-72.727ZM164.631-36.364C164.631-60.156 149.858-73.722 130.575-73.722C111.186-73.722 96.520-60.156 96.520-36.364C96.520-12.678 111.186 0.994 130.575 0.994C149.858 0.994 164.631-12.571 164.631-36.364ZM149.041-36.364C149.041-20.952 141.726-12.607 130.575-12.607C119.389-12.607 112.109-20.952 112.109-36.364C112.109-51.776 119.389-60.121 130.575-60.121C141.726-60.121 149.041-51.776 149.041-36.364Z"></path></g></g></g></svg>